<svg width="20" height="14" viewBox="0 0 20 14" fill="none" xmlns="http://www.w3.org/2000/svg">
<path d="M0 4.77273H20V9.22727H0V4.77273Z" fill="#E6E7E8"/>
<path d="M16.875 0H3.125C1.05406 0 0 1.56705 0 3.5V4.77273H20V3.5C20 1.56705 18.9459 0 16.875 0Z" fill="#1B75BB"/>
<path d="M0 10.5C0 12.433 1.05406 14 3.125 14H16.875C18.9459 14 20 12.433 20 10.5V9.22727H0V10.5Z" fill="#29B473"/>
<path d="M3.57844 3.91714C3.41801 3.91714 3.25915 3.88495 3.11094 3.82242C2.96273 3.75989 2.82807 3.66825 2.71466 3.55271C2.60125 3.43718 2.51131 3.30003 2.44997 3.14909C2.38863 2.99815 2.35711 2.83639 2.35719 2.67305C2.3571 2.34315 2.48572 2.02672 2.71474 1.79336C2.94375 1.56 3.25443 1.42881 3.57844 1.42864C3.62469 1.42864 3.67094 1.43214 3.71563 1.43755C3.49869 1.306 3.25093 1.23642 2.99844 1.23614C2.62929 1.24405 2.27789 1.39891 2.01957 1.66752C1.76125 1.93613 1.61658 2.29711 1.61658 2.67305C1.61658 3.04898 1.76125 3.40996 2.01957 3.67857C2.27789 3.94718 2.62929 4.10204 2.99844 4.10995C3.25089 4.10962 3.4986 4.04017 3.71563 3.90886C3.67094 3.91364 3.625 3.91714 3.57844 3.91714ZM8.95031 1.23486L9.08438 1.51391L9.3875 1.55909L9.16969 1.77641L9.22094 2.08314L8.95031 1.93773L8.67937 2.08314L8.73063 1.77641L8.5125 1.55909L8.81562 1.51391L8.95031 1.23486ZM8.95031 2.24636L9.08438 2.527L9.3875 2.57409L9.16969 2.78982L9.22094 3.09623L8.95031 2.95114L8.67937 3.09623L8.73063 2.78982L8.5125 2.57409L8.81562 2.527L8.95031 2.24636ZM8.95031 3.26136L9.08438 3.54136L9.3875 3.58591L9.16969 3.80291L9.22094 4.10964L8.95031 3.96518L8.67937 4.10964L8.73063 3.80291L8.5125 3.58591L8.81562 3.54136L8.95031 3.26136ZM7.825 1.23486L7.96156 1.51391L8.26375 1.55909L8.045 1.77641L8.09625 2.08314L7.825 1.93773L7.55625 2.08314L7.60656 1.77641L7.38844 1.55909L7.69063 1.51391L7.825 1.23486ZM7.825 2.24636L7.96156 2.527L8.26375 2.57409L8.045 2.78982L8.09625 3.09623L7.825 2.95114L7.55625 3.09623L7.60656 2.78982L7.38844 2.57409L7.69063 2.527L7.825 2.24636ZM7.825 3.26136L7.96156 3.54136L8.26375 3.58591L8.045 3.80291L8.09625 4.10964L7.825 3.96518L7.55625 4.10964L7.60656 3.80291L7.38844 3.58591L7.69063 3.54136L7.825 3.26136ZM6.70156 1.23486L6.83656 1.51391L7.13969 1.55909L6.91875 1.77641L6.9725 2.08314L6.70156 1.93773L6.43031 2.08314L6.48281 1.77641L6.2625 1.55909L6.56563 1.51391L6.70156 1.23486ZM6.70156 2.24636L6.83656 2.527L7.13969 2.57409L6.91875 2.78982L6.9725 3.09623L6.70156 2.95114L6.43031 3.09623L6.48281 2.78982L6.2625 2.57409L6.56563 2.527L6.70156 2.24636ZM6.70156 3.26136L6.83656 3.54136L7.13969 3.58591L6.91875 3.80291L6.9725 4.10964L6.70156 3.96518L6.43031 4.10964L6.48281 3.80291L6.2625 3.58591L6.56563 3.54136L6.70156 3.26136ZM5.57719 2.24636L5.7125 2.527L6.015 2.57409L5.79625 2.78982L5.84844 3.09623L5.57719 2.95114L5.30625 3.09623L5.35938 2.78982L5.13875 2.57409L5.44219 2.527L5.57719 2.24636ZM5.57719 3.26136L5.7125 3.54136L6.015 3.58591L5.79625 3.80291L5.84844 4.10964L5.57719 3.96518L5.30625 4.10964L5.35938 3.80291L5.13875 3.58591L5.44219 3.54136L5.57719 3.26136ZM4.44687 3.26136L4.58219 3.54136L4.88531 3.58591L4.66625 3.80291L4.71875 4.10964L4.44687 3.96518L4.17594 4.10964L4.22781 3.80291L4.00906 3.58591L4.31156 3.54136L4.44687 3.26136Z" fill="#E6E7E8"/>
<path d="M0 4.77273H20V5.40909H0V4.77273ZM0 8.90909H20V9.54545H0V8.90909Z" fill="#EC1C24"/>
</svg>
